# xmcd CD database file
#
# Track frame offsets:
#	155
#	9911
#	21277
#	35794
#	43466
#	56765
#	66530
#	81496
#	88610
#	103137
#	105245
#	126134
#	137363
#	147232
#	154947
#	172761
#	177480
#	194760
#
# Disc length: 3127 seconds
#
# Revision: 0
# Processed by: cddbd v1.5.2PL0 Copyright (c) Steve Scherf et al.
# Submitted via: CDex 1.70beta2
#
DISCID=040c3512
DTITLE=Paolo Conte - Razz Ma Tazz
DYEAR=1900
DGENRE=Jazz
TTITLE0=Razz Ma Tazz
TTITLE1=Les Paris
TTITLE2=Guaracha
TTITLE3=La Reine Noire
TTITLE4=It's A Green Dream
TTITLE5=Ca Dépend
TTITLE6=Talent Scout Man
TTITLE7=Aigrette Et Sa Valse
TTITLE8=The Yellow Dog
TTITLE9=La Danse
TTITLE10=The Black Queen
TTITLE11=La Java
TTITLE12=That's My Opinion
TTITLE13=Guitars
TTITLE14=La Petite
TTITLE15=Pasta "Diva"
TTITLE16=It's A Green
TTITLE17=Mozambique
EXTD=
EXTT0=
EXTT1=
EXTT2=
EXTT3=
EXTT4=
EXTT5=
EXTT6=
EXTT7=
EXTT8=
EXTT9=
EXTT10=
EXTT11=
EXTT12=
EXTT13=
EXTT14=
EXTT15=
EXTT16=
EXTT17=
PLAYORDER=
